{"title":"Hit.Parade.2010.DVDRip.XviD-SDTeam","uid":5762030,"size":450370398,"categoryP":"video","categoryS":"movies","magnet":"?xt=urn:btih:dedb65dfdc7a4be380114d6ceb2d111cfe771f70&amp;dn=Hit.Parade.2010.DVDRip.XviD-SDTeam&amp;tr=udp%3A%2F%2Ftracker.openbittorrent.com%3A80&amp;tr=udp%3A%2F%2Fopen.demonii.com%3A1337&amp;tr=udp%3A%2F%2Ftracker.coppersurfer.tk%3A6969&amp;tr=udp%3A%2F%2Fexodus.desync.com%3A6969","seeders":0,"leechers":0,"uploader":"bg2k9","files":34,"time":1281762642,"description":"GREETZ: UnDeaD - BadGirl2k9 - virusofsaten - foxyb - WICCYWOLF - lizzymwah1\n\nRELEASE NAME: Hit.Parade.2010.DVDRip.XviD-SDTeam \nRELEASED BY: UnDeaD &amp; BadGirl2k9\nSIZE: 429 MB\n\nLANGUAGE: English\nIMDb: http://www.imdb.com/title/tt1334455/\n\nPLOT: Jerome Archer is a retired hit man living the \nstraight life as a retail bookstore manager. When he \nis coerced by a pair of industrious United States Census \nBureau agents to hunt down a dangerous, young contract \nkiller, Jerome suddenly has a life-altering choice to make: \nwill he be forced to return to his old, murderous ways... \nor will he find a new way out?  \n\nSCREENS: &lt;a href=&quot;\nhttp://i658.photobucket.com/albums/uu309/BadGirl2k9/screens/vlcsnap-2010-08-14-02h45m36s59.png&quot; rel=&quot;nofollow&quot; target=&quot;_NEW&quot;&gt;\nhttp://i658.photobucket.com/albums/uu309/BadGirl2k9/screens/vlcsnap-2010-08-14-02h45m36s59.png&lt;/a&gt; &lt;a href=&quot;\nhttp://i658.photobucket.com/albums/uu309/BadGirl2k9/screens/vlcsnap-2010-08-14-02h45m41s123.png&quot; rel=&quot;nofollow&quot; target=&quot;_NEW&quot;&gt;\nhttp://i658.photobucket.com/albums/uu309/BadGirl2k9/screens/vlcsnap-2010-08-14-02h45m41s123.png&lt;/a&gt; &lt;a href=&quot;\nhttp://i658.photobucket.com/albums/uu309/BadGirl2k9/screens/vlcsnap-2010-08-14-02h45m49s188.png&quot; rel=&quot;nofollow&quot; target=&quot;_NEW&quot;&gt;\nhttp://i658.photobucket.com/albums/uu309/BadGirl2k9/screens/vlcsnap-2010-08-14-02h45m49s188.png&lt;/a&gt;\n\nGeneral\nFormat                           : AVI\nFormat/Info                      : Audio Video Interleave\nFile size                        : 429 MiB\nDuration                         : 1h 45mn\nOverall bit rate                 : 572 Kbps\nWriting application              : MEncoder SVN-r22963\nWriting library                  : MPlayer\n\nVideo\nID                               : 0\nFormat                           : MPEG-4 Visual\nFormat profile                   : Simple@L3\nFormat settings, BVOP            : No\nFormat settings, QPel            : No\nFormat settings, GMC             : No warppoints\nFormat settings, Matrix          : Default (H.263)\nCodec ID                         : XVID\nCodec ID/Hint                    : XviD\nDuration                         : 1h 45mn\nBit rate                         : 496 Kbps\nWidth                            : 512 pixels\nHeight                           : 224 pixels\nDisplay aspect ratio             : 2.25:1\nFrame rate                       : 20.000 fps\nResolution                       : 8 bits\nColorimetry                      : 4:2:0\nScan type                        : Progressive\nBits/(Pixel*Frame)               : 0.216\nStream size                      : 373 MiB (87%)\nWriting library                  : XviD 1.1.2 (UTC 2006-11-01)\n\nAudio\nID                               : 1\nFormat                           : MPEG Audio\nFormat version                   : Version 1\nFormat profile                   : Layer 3\nCodec ID                         : 55\nCodec ID/Hint                    : MP3\nDuration                         : 1h 45mn\nBit rate mode                    : Constant\nBit rate                         : 64.0 Kbps\nChannel(s)                       : 2 channels\nSampling rate                    : 44.1 KHz\nStream size                      : 48.1 MiB (11%)\nAlignment                        : Aligned on interleaves\nInterleave, duration             : 26 ms (0.52 video frame)\nInterleave, preload duration     : 522 ms\nWriting library                  : LAMEUUULAME3.97","torrent":{"xt":"urn:btih:dedb65dfdc7a4be380114d6ceb2d111cfe771f70","amp;dn":"Hit.Parade.2010.DVDRip.XviD-SDTeam","amp;tr":["udp%3A%2F%2Ftracker.openbittorrent.com%3A80","udp%3A%2F%2Fopen.demonii.com%3A1337","udp%3A%2F%2Ftracker.coppersurfer.tk%3A6969","udp%3A%2F%2Fexodus.desync.com%3A6969"],"infoHash":"dedb65dfdc7a4be380114d6ceb2d111cfe771f70","infoHashBuffer":{"type":"Buffer","data":[222,219,101,223,220,122,75,227,128,17,77,108,235,45,17,28,254,119,31,112]},"announce":[],"urlList":[]}}